# AST/ASF file generated using VICON BodyLanguage
# -----------------------------------------------
:version 1.10
:name VICON
:units
  mass 1.0
  length 0.45
  angle deg
:documentation
   .ast/.asf automatically generated from VICON data using
   VICON BodyBuilder and BodyLanguage model FoxedUp or BRILLIANT.MOD
:root
   order TX TY TZ RX RY RZ
   axis XYZ
   position 0 0 0  
   orientation 0 0 0 
:bonedata
  begin
     id 1 
     name lhipjoint
     direction 0.677091 -0.635792 0.370561 
     length 2.74323 
     axis 0 0 0  XYZ
  end
  begin
     id 2 
     name lfemur
     direction 0.34202 -0.939693 0  
     length 7.44995  
     axis 0 0 20  XYZ
    dof rx ry rz
    limits (-160.0 20.0)
           (-70.0 70.0)
           (-60.0 70.0)
  end
  begin
     id 3 
     name ltibia
     direction 0.34202 -0.939693 0   
     length 7.34467   
     axis 0 0 20   XYZ
    dof rx
    limits (-10.0 170.0)
  end
  begin
     id 4 
     name lfoot
     direction 0.101953 -0.280114 0.954537   
     length 1.72105   
     axis -90 7.62852e-016 20   XYZ
    dof rx rz
    limits (-45.0 90.0)
           (-70.0 20.0)
  end
  begin
     id 5 
     name ltoes
     direction 1.53537e-011 -4.21915e-011 1   
     length 0.865872   
     axis -90 7.62852e-016 20   XYZ
    dof rx
    limits (-90.0 20.0)
  end
  begin
     id 6 
     name rhipjoint
     direction -0.695735 -0.620586 0.361699   
     length 2.81045  
     axis 0 0 0  XYZ 
  end
  begin
     id 7 
     name rfemur
     direction -0.34202 -0.939693 0   
     length 7.29387   
     axis 0 0 -20   XYZ
    dof rx ry rz
    limits (-160.0 20.0)
           (-70.0 70.0)
           (-70.0 60.0)
  end
  begin
     id 8 
     name rtibia
     direction -0.34202 -0.939693 0   
     length 7.44935   
     axis 0 0 -20   XYZ
    dof rx
    limits (-10.0 170.0)
 end
 begin
     id 9 
     name rfoot
     direction -0.104163 -0.286184 0.952496   
     length 1.77731  
     axis -90 -7.62852e-016 -20   XYZ
    dof rx rz
    limits (-45.0 90.0)
           (-20.0 70.0)
  end
  begin
     id 10 
     name rtoes
     direction -1.5355e-011 -4.21888e-011 1   
     length 0.892424   
     axis -90 -7.62852e-016 -20   XYZ
    dof rx
    limits (-90.0 20.0)
  end
  begin
     id 11 
     name lowerback
     direction 0.0100202 0.997226 -0.0737589   
     length 2.16892   
     axis 0 0 0   XYZ
    dof rx ry rz
    limits (-20.0 45.0)
           (-30.0 30.0)
           (-30.0 30.0)
  end
  begin
     id 12 
     name upperback
     direction 0.00432398 0.999988 -0.00215019   
     length 2.17326   
     axis 0 0 0   XYZ
    dof rx ry rz
    limits (-20.0 45.0)
           (-30.0 30.0)
           (-30.0 30.0)
  end
  begin
     id 13 
     name thorax
     direction -0.00195047 0.999485 0.0320434   
     length 2.18139   
     axis 0 0 0   XYZ
    dof rx ry rz
    limits (-20.0 45.0)
           (-30.0 30.0)
           (-30.0 30.0)
  end
  begin
     id 14 
     name lowerneck
     direction 0.00782762 0.986241 0.165128   
     length 1.88415   
     axis 0 0 0   XYZ
    dof rx ry rz
    limits (-20.0 45.0)
           (-30.0 30.0)
           (-30.0 30.0)
  end
  begin
     id 15 
     name upperneck
     direction 0.00988667 0.981098 -0.193258   
     length 1.9242   
     axis 0 0 0   XYZ
    dof rx ry rz
    limits (-20.0 45.0)
           (-30.0 30.0)
           (-30.0 30.0)
  end
  begin
     id 16
     name head
     direction 0.00252199 0.996513 -0.0833958  
     length 1.93887  
     axis 0 0 0   XYZ
    dof rx ry rz
    limits (-20.0 45.0)
           (-30.0 30.0)
           (-30.0 30.0)
  end
  begin
     id 17 
     name lclavicle
     direction 0.929492 0.368193 -0.0218667  
     length 3.5955  
     axis 0 0 0   XYZ
    dof ry rz
    limits (-20.0 10.0)
           (0.0 20.0)
  end
  begin
     id 18 
     name lhumerus
     direction 1 -4.48972e-011 1.41911e-027   
     length 5.2795   
     axis 180 -30 -90   XYZ
    dof rx ry rz
    limits (-60.0 90.0)
           (-90.0 90.0)
           (-90.0 90.0)
  end
  begin
     id 19
     name lradius
     direction 1 -4.48963e-011 7.05772e-027   
     length 3.53504   
     axis 180 -30 -90   XYZ
    dof rx
    limits (-10.0 170.0)
  end
  begin
     id 20
     name lwrist
     direction 1 -4.48957e-011 9.54866e-027   
     length 1.76752   
     axis -7.69462e-015 90 90   XYZ
    dof ry
    limits (-180.0 0.0)
 end
  begin
     id 21 
     name lhand
     direction 1 -4.48979e-011 1.90973e-026   
     length 0.667948   
     axis -1.21857e-014 90 90   XYZ
    dof rx rz
    limits (-90.0 90.0)
           (-45.0 45.0)
  end
  begin
     id 22 
     name lfingers
     direction 1 -4.48987e-011 3.81946e-026   
     length 0.538517   
     axis -2.43714e-014 90 90   XYZ
    dof rx
    limits (0.0 90.0)
  end
  begin
     id 23
     name lthumb
     direction 0.707107 -6.34962e-011 0.707107   
     length 0.773206   
     axis -90 45 2.85299e-015   XYZ
    dof rx rz
    limits (-45.0 45.0)
           (-45.0 45.0)
  end
  begin
     id 24 
     name rclavicle
     direction -0.898763 0.414256 -0.143584   
     length 3.5176  
     axis 0 0 0   XYZ 
    dof ry rz
    limits (-10.0 20.0)
           (-20.0 0.0)
  end
  begin
     id 25 
     name rhumerus
     direction -1 -4.48971e-011 1.129e-027  
     length 5.25035   
     axis 180 30 90   XYZ
    dof rx ry rz
    limits (-90.0 60.0)
           (-90.0 90.0)
           (-90.0 90.0)
  end
  begin
     id 26 
     name rradius
     direction -1 -4.48955e-011 6.34664e-027   
     length 3.58884   
     axis 180 30 90   XYZ
    dof rx
    limits (-10.0 170.0)
  end
  begin
     id 27 
     name rwrist
     direction -1 -4.48966e-011 9.54866e-027   
     length 1.79442   
     axis -7.69462e-015 -90 -90   XYZ
    dof ry
    limits (-180.0 0.0)
  end
  begin
     id 28
     name rhand
     direction -1 -4.48973e-011 1.90973e-026   
     length 0.779235   
     axis -1.21857e-014 -90 -90   XYZ
    dof rx rz
    limits (-90.0 90.0)
           (-45.0 45.0)
  end
  begin
     id 29
     name rfingers
     direction -1 -4.48984e-011 3.81946e-026   
     length 0.62824   
     axis -2.43714e-014 -90 -90   XYZ
    dof rx
    limits (0.0 90.0)
  end
  begin
     id 30
     name rthumb
     direction -0.707107 -6.34968e-011 0.707107   
     length 0.90203   
     axis -90 -45 -2.85299e-015   XYZ
    dof rx rz
    limits (-45.0 45.0)
           (-45.0 45.0)
  end
:hierarchy
  begin
    root lhipjoint rhipjoint lowerback
    lhipjoint lfemur
    lfemur ltibia
    ltibia lfoot
    lfoot ltoes
    rhipjoint rfemur
    rfemur rtibia
    rtibia rfoot
    rfoot rtoes
    lowerback upperback
    upperback thorax
    thorax lowerneck lclavicle rclavicle
    lowerneck upperneck
    upperneck head
    lclavicle lhumerus
    lhumerus lradius
    lradius lwrist
    lwrist lhand lthumb
    lhand lfingers
    rclavicle rhumerus
    rhumerus rradius
    rradius rwrist
    rwrist rhand rthumb
    rhand rfingers
  end

#!OML:ASF I:\Random Stuff\random\construction\7_22_03\Session 2\subj1.ASF
:FULLY-SPECIFIED
:DEGREES
1
root -4.55926 17.7552 -2.03526 -9.21692 79.2412 -16.3191
lowerback 2.76393 0.231806 0.238938
upperback -2.51182 0.382136 1.18783
thorax -4.14436 0.208993 1.06612
lowerneck -24.1896 -1.35157 -0.0162163
upperneck 25.8367 -2.07439 1.00222
head 12.63 -0.710873 0.0351205
rclavicle -5.14355e-015 -4.87022e-015
rhumerus -39.0128 -8.35362 -73.7673
rradius 21.8343
rwrist 10.345
rhand -14.8109 19.6949
rfingers 7.12502
rthumb 11.3471 -9.97811
lclavicle -5.14355e-015 -4.87022e-015
lhumerus -42.1798 3.269 82.7019
lradius 25.431
lwrist 26.8805
lhand -21.9706 59.5526
lfingers 7.12502
lthumb 4.43712 89.4861
rfemur -1.17922 0.566351 19.5678
rtibia -6.36111e-015
rfoot -7.37154 -22.5999
rtoes 22.7751
lfemur -12.2694 -18.7322 -12.4609
ltibia 20.6542
lfoot -14.3674 20.9206
ltoes -29.1631
2
root -4.55554 17.7549 -2.03687 -9.48833 79.2555 -16.5258
lowerback 2.86804 0.230748 0.190092
upperback -2.51819 0.379999 1.20485
thorax -4.21048 0.209716 1.11094
lowerneck -24.2599 -1.40169 -0.122636
upperneck 26.0248 -2.12238 1.06307
head 12.7221 -0.730478 0.067516
rclavicle 3.28305e-015 -3.8266e-015
rhumerus -38.7751 -7.46969 -74.5798
rradius 22.6452
rwrist 9.40068
rhand -14.8692 20.0973
rfingers 7.12502
rthumb 11.2909 -9.57884
lclavicle 3.28305e-015 -3.8266e-015
lhumerus -42.1071 2.83482 83.158
lradius 26.3096
lwrist 27.9017
lhand -22.0794 59.8464
lfingers 7.12502
lthumb 4.33208 89.7821
rfemur -1.09326 0.545173 19.5943
rtibia -1.59028e-015
rfoot -7.49426 -22.6202
rtoes 23.4098
lfemur -12.2146 -18.4016 -12.4666
ltibia 20.6971
lfoot -14.4269 20.5357
ltoes -28.9259
3
root -4.55064 17.7547 -2.03983 -9.61525 79.251 -16.6096
lowerback 2.88088 0.244014 0.149619
upperback -2.49294 0.394853 1.19694
thorax -4.19203 0.217905 1.12448
lowerneck -24.2323 -1.43536 -0.117576
upperneck 26.0601 -2.15018 0.994391
head 12.7299 -0.751326 0.0354797
rclavicle 3.49116e-015 6.55989e-015
rhumerus -38.5253 -6.55882 -75.4573
rradius 23.581
rwrist 8.47378
rhand -14.9171 20.0559
rfingers 7.12502
rthumb 11.2447 -9.62275
lclavicle 3.49116e-015 6.55989e-015
lhumerus -41.9423 2.35604 83.6542
lradius 27.2799
lwrist 29.0594
lhand -22.387 60.248
lfingers 7.12502
lthumb 4.03511 -90.1895
rfemur -1.03804 0.54651 19.6036
rtibia 1.59028e-015
rfoot -7.48145 -22.6546
rtoes 23.3964
lfemur -12.13 -18.2873 -12.4957
ltibia 20.6644
lfoot -14.3276 20.441
ltoes -29.1385
4
root -4.54405 17.7559 -2.04312 -9.55707 79.249 -16.4986
lowerback 2.87046 0.279213 0.106386
upperback -2.47162 0.437424 1.15751
thorax -4.16475 0.239392 1.10532
lowerneck -24.1666 -1.47535 -0.13201
upperneck 26.069 -2.18828 0.9563
head 12.7202 -0.77475 0.0169579
rclavicle -1.96673e-014 -8.94531e-016
rhumerus -38.325 -5.68318 -76.331
rradius 24.6108
rwrist 7.5632
rhand -14.9737 19.9759
rfingers 7.12502
rthumb 11.1901 -9.70564
lclavicle -1.96673e-014 -8.94531e-016
lhumerus -41.8018 1.80066 84.1793
lradius 28.4078
lwrist 30.1649
lhand -22.6383 60.9422
lfingers 7.12502
lthumb 3.79238 -90.8882
rfemur -0.980707 0.551508 19.5751
rtibia -2.38542e-015
rfoot -7.28964 -22.7181
rtoes 22.4458
lfemur -12.0313 -18.4417 -12.5664
ltibia 20.6609
lfoot -14.3196 20.6061
ltoes -29.2372
5
root -4.53677 17.7573 -2.04573 -9.71115 79.2678 -16.6258
lowerback 2.90833 0.27898 0.101916
upperback -2.53069 0.436829 1.12235
thorax -4.24729 0.239101 1.07143
lowerneck -24.0856 -1.49114 -0.153557
upperneck 26.2156 -2.20545 0.977569
head 12.7639 -0.778297 0.0264693
rclavicle -2.04375e-015 1.08338e-014
rhumerus -38.2332 -4.74576 -77.2251
rradius 25.7317
rwrist 6.73013
rhand -15.0607 19.9751
rfingers 7.12502
rthumb 11.1062 -9.71102
lclavicle -2.04375e-015 1.08338e-014
lhumerus -41.7566 1.34321 84.6568
lradius 29.6496
lwrist 31.1208
lhand -22.1783 61.1916
lfingers 7.12502
lthumb 4.23663 -91.1293
rfemur -0.938504 0.527775 19.5808
rtibia 3.97569e-015
rfoot -7.19767 -22.7439
rtoes 21.8711
lfemur -11.9668 -18.558 -12.5741
ltibia 20.6355
lfoot -14.3989 20.6369
ltoes -28.6786
6
root -4.53098 17.7583 -2.04832 -9.90854 79.3111 -16.8141
lowerback 2.835 0.256839 0.00482872
upperback -2.50451 0.403009 1.15572
thorax -4.17884 0.225512 1.1628
lowerneck -24.0416 -1.4725 -0.126755
upperneck 26.2418 -2.15955 0.886714
head 12.7637 -0.767792 -0.00454571
rclavicle 2.07481e-015 7.05686e-015
rhumerus -37.9695 -3.73955 -78.063
rradius 26.9145
rwrist 5.91089
rhand -15.0541 19.9841
rfingers 7.12502
rthumb 11.1126 -9.70166
lclavicle 2.07481e-015 7.05686e-015
lhumerus -41.5067 0.867888 85.275
lradius 30.9722
lwrist 32.0702
lhand -20.9775 60.4683
lfingers 7.12502
lthumb 5.39607 -90.3796
rfemur -0.909016 0.477645 19.593
rtibia 3.18055e-015
rfoot -7.20523 -22.749
rtoes 21.8928
lfemur -11.9376 -18.62 -12.5599
ltibia 20.5857
lfoot -14.4332 20.5929
ltoes -28.0537
7
root -4.52623 17.7611 -2.05262 -9.9788 79.3744 -16.8701
lowerback 2.88695 0.300703 -0.0107255
upperback -2.53927 0.460185 1.11803
thorax -4.24539 0.254082 1.12872
lowerneck -23.9414 -1.52514 -0.170598
upperneck 26.2295 -2.22104 0.904238
head 12.7399 -0.796841 -0.000524896
rclavicle 3.71541e-014 5.76476e-015
rhumerus -37.897 -2.56861 -78.9788
rradius 28.2855
rwrist 4.6754
rhand -15.1841 19.9542
rfingers 7.12502
rthumb 10.9871 -9.73827
lclavicle 3.71541e-014 5.76476e-015
lhumerus -41.3117 -0.0377672 86.0083
lradius 32.435
lwrist 33.1283
lhand -20.3094 60.0487
lfingers 7.12502
lthumb 6.0411 -270.057
rfemur -0.882751 0.4126 19.5815
rtibia -7.95139e-016
rfoot -7.068 -22.8056
rtoes 21.3159
lfemur -11.9092 -18.5973 -12.589
ltibia 20.5413
lfoot -14.351 20.5068
ltoes -28.081
8
root -4.52034 17.7649 -2.05724 -10.1068 79.4234 -16.9988
lowerback 2.8204 0.329491 -0.0489939
upperback -2.50991 0.495632 1.11171
thorax -4.17811 0.272417 1.14168
lowerneck -23.9026 -1.56481 -0.235854
upperneck 26.195 -2.26413 0.943914
head 12.72 -0.81747 0.0183725
rclavicle -5.55355e-015 3.27995e-015
rhumerus -37.7439 -1.10043 -79.9575
rradius 29.7795
rwrist 3.242
rhand -15.5301 19.7681
rfingers 7.12502
rthumb 10.6535 -9.94185
lclavicle -5.55355e-015 3.27995e-015
lhumerus -41.0113 -0.795964 86.6738
lradius 33.9303
lwrist 34.0604
lhand -20.2673 59.9784
lfingers 7.12502
lthumb 6.08177 -270.129
rfemur -0.862455 0.358835 19.5841
rtibia 0
rfoot -6.96325 -22.8632
rtoes 20.8824
lfemur -11.8985 -18.3348 -12.6077
ltibia 20.5144
lfoot -14.2314 20.212
ltoes -28.4062
9
root -4.51382 17.7666 -2.06212 -10.1899 79.4795 -17.0683
lowerback 2.82831 0.333863 -0.0734231
upperback -2.53764 0.499343 1.07684
thorax -4.21133 0.274615 1.11909
lowerneck -23.84 -1.61349 -0.305517
upperneck 26.3016 -2.33802 1.05318
head 12.7538 -0.839171 0.0596749
rclavicle 1.50517e-014 1.85864e-014
rhumerus -37.6613 0.108744 -80.8179
rradius 31.2052
rwrist 2.25812
rhand -15.8339 19.6537
rfingers 7.12502
rthumb 10.3603 -10.0711
lclavicle 1.50517e-014 1.85864e-014
lhumerus -40.7961 -1.41025 87.2056
lradius 35.4481
lwrist 34.72
lhand -20.1872 59.665
lfingers 7.12502
lthumb 6.15912 -270.445
rfemur -0.807754 0.298597 19.5621
rtibia 1.51076e-014
rfoot -7.01751 -22.8616
rtoes 21.0973
lfemur -11.8879 -17.9626 -12.6512
ltibia 20.5097
lfoot -14.1528 19.8148
ltoes -28.6518
10
root -4.50761 17.7657 -2.06913 -10.3799 79.6004 -17.2135
lowerback 2.88144 0.311941 -0.0844069
upperback -2.56435 0.468831 1.04621
thorax -4.2684 0.259472 1.09538
lowerneck -23.8031 -1.64766 -0.376038
upperneck 26.4272 -2.38184 1.13248
head 12.7999 -0.851653 0.094781
rclavicle -2.07109e-014 5.86415e-015
rhumerus -37.5773 1.21656 -81.591
rradius 32.5464
rwrist 1.50307
rhand -16.0624 19.847
rfingers 7.12502
rthumb 10.1399 -9.88867
lclavicle -2.07109e-014 5.86415e-015
lhumerus -40.5216 -1.84645 87.677
lradius 36.8904
lwrist 34.9595
lhand -20.0889 59.454
lfingers 7.12502
lthumb 6.254 -270.658
rfemur -0.711306 0.171513 19.5315
rtibia 2.38542e-015
rfoot -7.06149 -22.8236
rtoes 21.027
lfemur -11.8758 -17.6659 -12.7117
ltibia 20.541
lfoot -14.0641 19.4415
ltoes -28.9528
11
root -4.50157 17.7645 -2.07432 -10.82 79.7052 -17.6283
lowerback 2.88438 0.328817 -0.0548087
upperback -2.58141 0.492161 1.02186
thorax -4.28775 0.269913 1.05206
lowerneck -23.7872 -1.7164 -0.474116
upperneck 26.5502 -2.4595 1.19467
head 12.8498 -0.884353 0.121775
rclavicle -6.67171e-015 -8.74653e-015
rhumerus -37.5292 2.29385 -82.3258
rradius 33.8618
rwrist 0.765403
rhand -16.3225 20.1564
rfingers 7.12502
rthumb 9.88904 -9.59135
lclavicle -6.67171e-015 -8.74653e-015
lhumerus -40.1892 -2.29356 88.1304
lradius 38.2753
lwrist 34.975
lhand -20.0455 59.4102
lfingers 7.12502
lthumb 6.29593 -270.703
rfemur -0.637889 0.0523915 19.5623
rtibia -1.35174e-014
rfoot -7.11768 -22.7881
rtoes 20.9192
lfemur -11.9028 -17.402 -12.6969
ltibia 20.6178
lfoot -14.0649 19.105
ltoes -29.1112
12
root -4.4958 17.7639 -2.07863 -11.1821 79.7626 -17.9768
lowerback 2.84541 0.351514 -0.075612
upperback -2.58674 0.520885 1.00813
thorax -4.27177 0.284628 1.04787
lowerneck -23.7903 -1.80379 -0.636982
upperneck 26.7457 -2.57727 1.38041
head 12.937 -0.922091 0.200398
rclavicle -3.65267e-015 7.35503e-015
rhumerus -37.4493 3.42593 -83.0391
rradius 35.1187
rwrist 0.0860262
rhand -16.5345 20.3023
rfingers 7.12502
rthumb 9.6845 -9.45507
lclavicle -3.65267e-015 7.35503e-015
lhumerus -39.9336 -2.82564 88.5739
lradius 39.791
lwrist 35.0528
lhand -19.9912 59.3565
lfingers 7.12502
lthumb 6.34832 -270.759
rfemur -0.587835 -0.0173124 19.6004
rtibia 7.15625e-015
rfoot -7.11937 -22.8181
rtoes 20.6838
lfemur -11.9484 -17.1075 -12.6789
ltibia 20.7304
lfoot -14.1381 18.7693
ltoes -29.1606
